#!OML:ASF X:\für Bonn\!DataBase\2005_08_12_Daniel\c3d\Daniel.ASF
:FULLY-SPECIFIED
:DEGREES
160
root 3.60192 15.9002 4.52585 890.379 -42.5315 -182.917
lowerback 32.3615 -2.37197 1.1485
upperback 10.3763 -4.90951 -2.74123
thorax -6.1408 -3.15062 -1.86707
lowerneck -3.17054 2.37562 -1.54827
upperneck 0.514805 3.23158 -0.839688
head 0.664926 1.59935 0.0457721
rclavicle 9.34288e-015 2.10712e-014
rhumerus -40.554 -4.06889 -89.5466
rradius 69.4737
rwrist 8.80659
rhand -34.2636 7.28536
rfingers 7.12502
rthumb -7.43402 -22.564
lclavicle 9.34288e-015 2.10712e-014
lhumerus -27.3724 19.9967 82.4807
lradius 72.5074
lwrist -24.53
lhand -26.5539 2.98477
lfingers 7.12502
lthumb 0.0107602 32.9645
rfemur -35.0442 6.64127 19.3089
rtibia 39.2881
rfoot -10.579 -2.20625
rtoes -12.2309
lfemur 16.3752 2.94255 -24.7664
ltibia 46.9714
lfoot -36.7966 -5.26199
ltoes -5.43234
161
root 3.49929 15.9004 4.40632 890.435 -42.5397 -182.696
lowerback 32.4174 -2.55413 1.57605
upperback 10.3325 -4.98641 -2.61827
thorax -6.23509 -3.1805 -1.94206
lowerneck -3.47014 2.39474 -1.65959
upperneck 0.424939 3.2646 -0.883706
head 0.686189 1.61387 0.0545255
rclavicle -8.40859e-014 3.97569e-014
rhumerus -40.7314 -4.04675 -89.462
rradius 69.5056
rwrist 8.79344
rhand -34.3096 7.45059
rfingers 7.12502
rthumb -7.47844 -22.3972
lclavicle -8.40859e-014 3.97569e-014
lhumerus -27.3796 19.9695 82.4917
lradius 72.5099
lwrist -24.4253
lhand -26.5369 3.0823
lfingers 7.12502
lthumb 0.0271509 33.062
rfemur -35.2146 6.07153 19.6285
rtibia 39.944
rfoot -9.79332 -2.00467
rtoes -11.3748
lfemur 16.9486 2.79836 -24.6337
ltibia 46.4622
lfoot -36.4118 -5.16954
ltoes -5.74824
162
root 3.39547 15.9047 4.28538 890.464 -42.5396 -182.422
lowerback 32.4739 -2.74789 2.04836
upperback 10.2784 -5.06126 -2.49201
thorax -6.3441 -3.20886 -2.03898
lowerneck -3.72218 2.41401 -1.76012
upperneck 0.32229 3.29644 -0.921799
head 0.695586 1.6281 0.0625489
rclavicle -4.29375e-014 2.74323e-014
rhumerus -40.9106 -4.01449 -89.3794
rradius 69.535
rwrist 8.75239
rhand -34.3598 7.62436
rfingers 7.12502
rthumb -7.52682 -22.2217
lclavicle -4.29375e-014 2.74323e-014
lhumerus -27.4416 19.888 82.4404
lradius 72.4824
lwrist -24.2668
lhand -26.604 3.166
lfingers 7.12502
lthumb -0.0375878 33.1457
rfemur -35.3458 5.54877 19.9735
rtibia 40.5652
rfoot -9.07868 -1.82238
rtoes -10.5747
lfemur 17.4829 2.62339 -24.482
ltibia 45.9881
lfoot -35.9651 -5.0365
ltoes -6.11809
163
root 3.28874 15.9485 4.16315 890.499 -42.5095 -182.156
lowerback 32.8873 -2.93878 2.52901
upperback 9.82444 -5.1101 -2.45415
thorax -6.40605 -3.21276 -2.05479
lowerneck -3.9623 2.42691 -1.81644
upperneck 0.224027 3.31818 -0.995251
head 0.705695 1.6368 0.0523734
rclavicle -5.52621e-014 7.15625e-015
rhumerus -41.11 -4.01441 -89.2718
rradius 69.5657
rwrist 8.73906
rhand -34.4045 7.84469
rfingers 7.12502
rthumb -7.57003 -21.9998
lclavicle -5.52621e-014 7.15625e-015
lhumerus -27.5314 19.7276 82.3852
lradius 72.4625
lwrist -24.1119
lhand -26.6746 3.28319
lfingers 7.12502
lthumb -0.105842 33.2629
rfemur -35.2712 4.96971 20.3415
rtibia 41.0565
rfoot -8.53187 -1.5295
rtoes -10.1398
lfemur 18.0102 2.42997 -24.3598
ltibia 45.4601
lfoot -35.3976 -4.87399
ltoes -6.26238
164
root 3.18278 15.9574 4.04323 890.498 -42.4619 -181.84
lowerback 32.9491 -3.12084 3.03924
upperback 9.77335 -5.15476 -2.31488
thorax -6.50233 -3.22945 -2.15654
lowerneck -4.20069 2.45119 -1.92731
upperneck 0.10858 3.35682 -1.06141
head 0.709072 1.65382 0.0534238
rclavicle 2.96189e-014 -4.53229e-014
rhumerus -41.2595 -3.94806 -89.1232
rradius 69.5792
rwrist 8.66902
rhand -34.4323 8.0553
rfingers 7.12502
rthumb -7.59688 -21.7883
lclavicle 2.96189e-014 -4.53229e-014
lhumerus -27.6279 19.6813 82.4005
lradius 72.4006
lwrist -24.0704
lhand -26.8134 3.31642
lfingers 7.12502
lthumb -0.239854 33.296
rfemur -35.3432 4.41264 20.7505
rtibia 41.6284
rfoot -8.05748 -1.2189
rtoes -10.0752
lfemur 18.447 2.24533 -24.2169
ltibia 45.1158
lfoot -34.8581 -4.65531
ltoes -6.45764
165
root 3.07728 15.9674 3.9247 890.517 -42.3955 -181.569
lowerback 33.0401 -3.28776 3.52375
upperback 9.71033 -5.18794 -2.18991
thorax -6.62125 -3.24133 -2.2609
lowerneck -4.37948 2.47802 -2.01983
upperneck -0.0501356 3.39575 -1.13286
head 0.689318 1.67154 0.048575
rclavicle 8.78628e-014 -6.75868e-015
rhumerus -41.4178 -3.94339 -88.969
rradius 69.5863
rwrist 8.66075
rhand -34.44 8.21166
rfingers 7.12502
rthumb -7.60423 -21.6316
lclavicle 8.78628e-014 -6.75868e-015
lhumerus -27.7566 19.5797 82.4213
lradius 72.3598
lwrist -24.0723
lhand -26.9684 3.38495
lfingers 7.12502
lthumb -0.389595 33.3643
rfemur -35.3965 3.82989 21.1497
rtibia 42.194
rfoot -7.68451 -0.804046
rtoes -10.3512
lfemur 18.8333 2.09606 -24.1057
ltibia 44.8572
lfoot -34.2352 -4.40667
ltoes -6.56802
166
root 2.97121 15.9775 3.80767 890.515 -42.2834 -181.253
lowerback 33.102 -3.44522 4.06999
upperback 9.66263 -5.19384 -2.09239
thorax -6.71645 -3.24082 -2.438
lowerneck -4.56141 2.49009 -1.99982
upperneck -0.178587 3.41059 -1.23559
head 0.682042 1.67671 0.0158232
rclavicle 4.59193e-014 -3.29983e-014
rhumerus -41.5097 -3.98794 -88.8481
rradius 69.5479
rwrist 8.62806
rhand -34.4481 8.38514
rfingers 7.12502
rthumb -7.61211 -21.4579
lclavicle 4.59193e-014 -3.29983e-014
lhumerus -27.8224 19.4801 82.4316
lradius 72.2499
lwrist -24.1707
lhand -27.1217 3.38409
lfingers 7.12502
lthumb -0.537644 33.3632
rfemur -35.4966 3.27597 21.5817
rtibia 42.8606
rfoot -7.42728 -0.326917
rtoes -10.6814
lfemur 19.1028 2.02984 -23.9309
ltibia 44.7986
lfoot -33.6343 -4.13422
ltoes -6.65483
167
root 2.86597 15.9878 3.69327 890.571 -42.1426 -181.006
lowerback 33.1624 -3.56909 4.53848
upperback 9.61083 -5.17982 -1.9717
thorax -6.80633 -3.23236 -2.55682
lowerneck -4.68217 2.50248 -2.03277
upperneck -0.359295 3.42506 -1.3526
head 0.6476 1.68199 -0.0140793
rclavicle 2.24627e-014 -4.23411e-014
rhumerus -41.5364 -3.98605 -88.6562
rradius 69.4292
rwrist 8.60793
rhand -34.4473 8.55124
rfingers 7.12502
rthumb -7.61134 -21.2918
lclavicle 2.24627e-014 -4.23411e-014
lhumerus -27.9073 19.3489 82.4632
lradius 72.1662
lwrist -24.2059
lhand -27.2464 3.4593
lfingers 7.12502
lthumb -0.658103 33.438
rfemur -35.617 2.70527 21.969
rtibia 43.5224
rfoot -7.18386 0.255353
rtoes -10.7861
lfemur 19.2801 2.03589 -23.7901
ltibia 44.8334
lfoot -32.9412 -3.90859
ltoes -6.72993
168
root 2.76119 15.9996 3.57971 890.64 -41.9769 -180.736
lowerback 33.2011 -3.69481 5.00232
upperback 9.55008 -5.16765 -1.85132
thorax -6.89695 -3.22467 -2.67341
lowerneck -4.79856 2.53755 -2.0096
upperneck -0.52407 3.46711 -1.51493
head 0.619136 1.70035 -0.0662315
rclavicle 3.8763e-015 5.18828e-014
rhumerus -41.4919 -3.97517 -88.4682
rradius 69.2059
rwrist 8.57147
rhand -34.4149 8.69975
rfingers 7.12502
rthumb -7.58009 -21.1444
lclavicle 3.8763e-015 5.18828e-014
lhumerus -28.0103 19.3125 82.4697
lradius 72.0675
lwrist -24.3133
lhand -27.4069 3.45265
lfingers 7.12502
lthumb -0.813101 33.4309
rfemur -35.7409 2.19378 22.3548
rtibia 44.1616
rfoot -6.99804 0.843268
rtoes -10.8046
lfemur 19.3561 2.0969 -23.5951
ltibia 44.9609
lfoot -32.1424 -3.77913
ltoes -6.705
169
root 2.65722 16.0119 3.4677 890.803 -41.7823 -180.541
lowerback 33.1799 -3.7765 5.40742
upperback 9.48461 -5.11847 -1.74089
thorax -6.96482 -3.19834 -2.78644
lowerneck -4.8322 2.57059 -1.95854
upperneck -0.731907 3.50143 -1.6782
head 0.564152 1.71588 -0.124906
rclavicle 1.91827e-014 -1.33186e-014
rhumerus -41.4184 -4.00395 -88.2919
rradius 68.9453
rwrist 8.54537
rhand -34.4121 8.79055
rfingers 7.12502
rthumb -7.57733 -21.0537
lclavicle 1.91827e-014 -1.33186e-014
lhumerus -28.1634 19.2709 82.468
lradius 72.0539
lwrist -24.4173
lhand -27.4507 3.41937
lfingers 7.12502
lthumb -0.855415 33.3974
rfemur -35.9664 1.7292 22.6706
rtibia 44.9079
rfoot -6.94731 1.50522
rtoes -10.49
lfemur 19.2631 2.23617 -23.4264
ltibia 45.2935
lfoot -31.2909 -3.70802
ltoes -6.60728
170
root 2.55447 16.0242 3.35607 890.987 -41.5963 -180.348
lowerback 33.1404 -3.85838 5.82188
upperback 9.4273 -5.07005 -1.65123
thorax -7.01881 -3.17238 -2.9272
lowerneck -4.90555 2.60306 -1.81474
upperneck -0.912826 3.53135 -1.89399
head 0.527134 1.72787 -0.213681
rclavicle 2.3556e-014 7.35503e-015
rhumerus -41.3301 -4.12422 -88.1288
rradius 68.7096
rwrist 8.55786
rhand -34.3691 8.86963
rfingers 7.12502
rthumb -7.53582 -20.9761
lclavicle 2.3556e-014 7.35503e-015
lhumerus -28.2673 19.2066 82.4388
lradius 72.0599
lwrist -24.4807
lhand -27.4561 3.42815
lfingers 7.12502
lthumb -0.860562 33.4062
rfemur -36.197 1.25857 22.9844
rtibia 45.633
rfoot -6.92032 2.17976
rtoes -9.72646
lfemur 19.0807 2.36816 -23.2574
ltibia 45.7197
lfoot -30.2705 -3.69115
ltoes -6.43043
